<svg id="Layer_2" data-name="Layer 2" xmlns="http://www.w3.org/2000/svg" viewBox="0 0 2182.02 1600"><path d="M214,0" transform="translate(0 -76)" style="fill:#f04d59"/><path d="M2104.43,302.83l-26.84-53.66-73.16-146.34C1997.05,88.07,1977.51,76,1961,76H1221c-16.5,0-24,12.07-16.58,26.83l73.16,146.34C1285,263.93,1304.51,276,1321,276h440c16.5,0,36,12.07,43.42,26.83l73.16,146.34c7.38,14.76,5.32,37.63-4.58,50.83l-714,952c-9.9,13.2-31.5,24-48,24h-40c-16.5,0-38.1-10.8-48-24L309,500c-9.9-13.2-12-36.07-4.58-50.83l73.16-146.34C385,288.07,404.51,276,421,276H861c16.5,0,36-12.07,43.42-26.83l73.16-146.34C985,88.07,977.51,76,961,76H221c-16.5,0-36,12.07-43.42,26.83L104.43,249.17,77.59,302.83,4.43,449.17C-2.95,463.93-.89,486.8,9,500L873,1652c9.9,13.2,31.5,24,48,24h340c16.5,0,38.1-10.8,48-24L2173,500c9.9-13.2,12-36.07,4.58-50.83Z" transform="translate(0 -76)" style="fill:#f04d59"/><polygon points="891.01 400 516.01 400 1091.01 1200 1666.01 400 1291.01 400 1091.01 0 991.01 200 891.01 400" style="fill:#f04d59"/></svg>