<?xml version="1.0" encoding="utf-8"?>
<svg version="1.1" id="Layer_1" xmlns="http://www.w3.org/2000/svg" x="0px" y="0px" viewBox="-239.61 205.996 878.578 203.267" style="enable-background:new 0 0 595.1 103.8;" xmlns:bx="https://boxy-svg.com">
  <defs>
    <bx:export>
      <bx:file format="png"/>
      <bx:file format="png" href="#object-0" path="Untitled 2.png"/>
      <bx:file format="png" href="#object-1" path="Untitled 3.png"/>
      <bx:file format="png" href="#object-2" path="Untitled 4.png"/>
    </bx:export>
  </defs>
  <style type="text/css">
	.st0{fill:#FFFFFF;}
</style>
  <g transform="matrix(1, 0, 0, 1, 20.760571, 248.709442)" id="object-0">
    <path class="st0" d="M163.1,0c23,0,45.8,0,68.9,0c0,5.6,0,11.2,0,17c-5.5,0.1-11,0-16.5,0c-5.5,0-11,0-16.6,0c-5.5,0-11,0-16.7,0 c0,8.2,0,16.3,0,24.6c16.6,0,33.1,0,49.7,0c0,5.7,0,11.2,0,16.7c0,0-0.1,0.1-0.1,0.1c-0.1,0-0.1,0.1-0.1,0.1 c-0.2,0-0.4,0.1-0.6,0.1c-16.2,0-32.3,0-48.5,0.1c-0.1,0-0.1,0-0.2,0.1c-0.4,1.3-0.6,21.1-0.2,24.6c16.5,0,33,0,49.6,0 c0,5.8,0,11.3,0,16.8c-1.3,0.4-65.7,0.5-68.8,0.2C162.9,99,162.7,3,163.1,0z"/>
    <path class="st0" d="M595.2,83.4c0,5.8,0,11.3,0,16.8c-1.4,0.4-66.5,0.5-68.8,0.1c0-33.4,0-66.8,0-100.2c23,0,45.8,0,68.8,0 c0,5.6,0,11.2,0,17c-16.5,0-33.1,0-49.7,0c0,8.3,0,16.3,0,24.6c16.6,0,33.1,0,49.7,0c0,5.8,0,11.2,0,17c-2,0.1-4.1,0-6.2,0.1 c-2,0-4.1,0-6.1,0c-2.1,0-4.2,0-6.3,0s-4.2,0-6.3,0c-2,0-4.1,0-6.1,0c-2.1,0-4.2,0-6.3,0c-2,0-4.1,0-6.1,0c-2.1,0-4.2,0-6.4,0 c0,8.3,0,16.4,0,24.8C562,83.4,578.5,83.4,595.2,83.4z"/>
    <path class="st0" d="M312,0c0,6.6,0,13,0,19.6c-0.8,0-1.5,0.1-2.3,0.1c-10.5,0-21,0-31.6,0c-2.5,0-5.1,0.1-7.5,0.8 c-4.6,1.3-6.4,4.4-6.1,9.6c0.3,4.3,3.6,7.5,7.9,7.9c0.7,0.1,1.4,0.1,2.1,0.1c5.8,0,11.5-0.1,17.3,0C303,38.3,311.5,43.2,317,53 c2.5,4.5,3.7,9.4,3.9,14.6c0.2,5.3-0.2,10.5-2.3,15.5c-3.6,8.7-9.8,14.5-19.1,16.7c-1.9,0.5-3.9,0.6-5.8,0.7 c-14.7,0.1-29.4,0-44.1,0c-0.6,0-1.2,0-2,0c0-6.3,0-12.3,0-18.6c0.8,0,1.5-0.1,2.2-0.1c12.7,0,25.5,0,38.2,0c2,0,4-0.3,6-0.8 c4.3-1.1,8.9-4.8,8.5-11.9c-0.3-5.1-3.7-9.4-9-10.7c-1.5-0.3-3-0.5-4.5-0.5c-4.4-0.1-8.8,0-13.1,0c-5.2-0.1-10.4-0.8-15.3-2.6 c-8.2-3.1-13.3-9-15.3-17.6c-1.8-7.7-1.5-15.2,1.9-22.5c3.5-7.4,9.1-12.4,17.1-14.5c1.7-0.4,3.5-0.7,5.2-0.7 c13.6-0.1,27.3,0,40.9,0C311-0.1,311.4-0.1,312,0z"/>
    <path class="st0" d="M97.7,0c0,13.9,0,27.6,0,41.4c10.7,0,21.3,0,32,0c0-13.8,0-27.5,0-41.2c1.6-0.4,16.2-0.5,18.6-0.2 c0,33.4,0,66.8,0,100.3c-6.1,0-12.2,0-18.5,0c0-13.9,0-27.7,0-41.7c-10.8,0-21.4,0-32.1,0c0,13.9,0,27.7,0,41.6 c-6.4,0-12.5,0-18.8,0c0-33.4,0-66.8,0-100.3C85.1,0,91.2,0,97.7,0z"/>
    <path class="st0" d="M466,0c0,13.2,0,26.2,0,39.2c1,0.3,1.1-0.4,1.4-0.8c3.5-4.5,6.9-9.1,10.4-13.6c6-7.9,12-15.9,18-23.8 c0.5-0.7,1-1.2,2-1.2c5.8,0,11.7,0,17.5,0c0.2,0,0.5,0.1,1,0.2c-12.6,16.5-25.1,32.9-37.6,49.5c12.6,16.9,25.1,33.8,37.8,50.8 c-0.7,0-1.2,0.1-1.7,0.1c-5.5,0-10.9,0-16.4,0c-1.2,0-1.9-0.4-2.7-1.4c-9.2-12.2-18.4-24.4-27.7-36.5c-0.5-0.6-1-1.2-1.7-2.2 c-0.5,2.3-0.2,4.2-0.3,6.1c-0.1,1.8,0,3.7,0,5.5c0,1.9,0,3.8,0,5.7s0,3.8,0,5.7s0,3.8,0,5.7c0,1.8,0,3.7,0,5.5c0,1.9,0,3.8,0,5.8 c-6.5,0-12.7,0-19.1,0c0-33.5,0-66.9,0-100.4C453.2,0,459.5,0,466,0z"/>
    <path class="st0" d="M348.5,58.9c0,13.9,0,27.6,0,41.2c-1.5,0.4-14.4,0.5-17.5,0.2c-0.4-1.4-0.6-96.5-0.2-100.3 c0.5-0.1,0.9-0.2,1.4-0.2c14.2,0,28.4-0.1,42.6,0c11.8,0.1,22.3,8.4,25.4,19.9c0.6,2.3,1,4.6,0.9,6.9c0,2,0,4.1,0,6.1 C401,45.3,390.8,57,378.4,58.5c-1.8,0.2-3.5,0.3-5.3,0.3c-7.4,0-14.8,0-22.3,0C350.1,58.9,349.5,58.9,348.5,58.9z M348.8,17.5 c-0.4,2.2-0.4,22.3,0.1,23.6c0.4,0,0.8,0.1,1.1,0.1c7.2,0,14.4,0,21.7,0c0.7,0,1.4,0,2.1-0.1c5.2-0.6,8.5-3.7,9.1-8.9 c0.2-1.9,0.2-3.8,0-5.6c-0.7-4.9-3.8-8-8.7-8.8c-1.1-0.2-2.1-0.3-3.2-0.3c-6.8,0-13.6,0-20.3,0C350,17.5,349.3,17.5,348.8,17.5z"/>
    <path class="st0" d="M43.7,100.4c-6.2,0-12.1,0-18.1,0c0-27.3,0-54.4,0-81.8c-8.6,0-17,0-25.5,0C0,12.3,0,6.3,0,0.2 c1.3-0.4,67.2-0.5,69.5-0.1c0,6,0,12.1,0,18.4c-8.6,0-17.1,0-25.8,0C43.7,45.9,43.7,73,43.7,100.4z"/>
    <path class="st0" d="M413.1,100.3c0-33.5,0-66.8,0-100.1c1.4-0.4,15.7-0.5,18.7-0.2c0,33.4,0,66.8,0,100.1 C430.5,100.6,416.1,100.7,413.1,100.3z"/>
  </g>
  <path style="fill: rgb(240, 77, 89);"/>
  <path d="M -1.832 245.423 L -4.753 239.483 L -12.713 223.278 C -13.514 221.646 -15.635 220.309 -17.423 220.309 L -97.94 220.309 C -99.72 220.309 -100.53 221.646 -99.73 223.278 L -91.777 239.483 C -90.967 241.116 -88.842 242.454 -87.058 242.454 L -39.186 242.454 C -37.395 242.454 -35.274 243.788 -34.464 245.423 L -26.504 261.627 C -25.704 263.26 -25.927 265.794 -27.004 267.254 L -104.69 372.659 C -105.74 374.122 -108.11 375.317 -109.9 375.317 L -114.25 375.317 C -116.05 375.317 -118.4 374.122 -119.48 372.659 L -197.16 267.254 C -198.24 265.794 -198.45 263.26 -197.71 261.627 L -189.69 245.423 C -188.88 243.788 -186.76 242.454 -184.95 242.454 L -137.1 242.454 C -135.3 242.454 -133.19 241.116 -132.37 239.483 L -124.42 223.278 C -123.61 221.646 -124.42 220.309 -126.22 220.309 L -206.64 220.309 C -208.45 220.309 -210.59 221.646 -211.43 223.278 L -219.42 239.483 L -222.31 245.423 L -230.29 261.627 C -231.06 263.26 -230.83 265.794 -229.77 267.254 L -135.79 394.806 C -134.71 396.264 -132.35 397.462 -130.57 397.462 L -93.584 397.462 C -91.788 397.462 -89.429 396.264 -88.373 394.806 L 5.627 267.254 C 6.714 265.794 6.937 263.26 6.128 261.627 L -1.832 245.423 Z" style="fill: rgb(240, 77, 89);" id="object-1"/>
  <polygon points="-133.83 264.598 -174.62 264.598 -112.08 353.174 -49.521 264.598 -90.321 264.598 -112.08 220.309 -122.96 242.454 -133.83 264.598" style="fill: rgb(240, 77, 89);" id="object-2"/>
  <text style="fill: rgb(255, 255, 255); font-family: Impact; font-size: 27.6786px; letter-spacing: 1.1px; line-height: 44.2857px; stroke-miterlimit: 3.62; stroke-width: 46.2157px; text-transform: capitalize; white-space: pre;" transform="matrix(1.043767, 0, 0, 1.12, -1.772321, -44.35804)" x="40.494" y="394.749">HOME OF VALORANT ESPORTS</text>
</svg>